<svg xmlns="http://www.w3.org/2000/svg" xmlns:xlink="http://www.w3.org/1999/xlink" version="1.1" x="0px" y="0px" viewBox="0 0 100 125" style="enable-background:new 0 0 100 100;" xml:space="preserve"><path d="M36.519,68.437c-0.104,0.466-0.518,0.783-0.976,0.783c-0.072,0-0.145-0.008-0.218-0.024l-10.862-2.413  c-0.539-0.12-0.879-0.654-0.76-1.193c0.119-0.54,0.654-0.875,1.193-0.759l10.862,2.413C36.298,67.363,36.638,67.897,36.519,68.437z"/><path d="M34.689,72.063c0.539,0.12,0.879,0.654,0.76,1.193c-0.104,0.466-0.518,0.783-0.976,0.783c-0.072,0-0.145-0.008-0.218-0.024  l-10.863-2.413c-0.539-0.12-0.879-0.654-0.76-1.193c0.12-0.54,0.654-0.876,1.193-0.759L34.689,72.063z"/><path d="M89.719,57.801l-18.433-44.58c-0.211-0.511-0.798-0.751-1.306-0.542l-31.73,13.12c-0.511,0.211-0.753,0.796-0.542,1.307  l3.906,9.447l-21.273-4.726c-0.257-0.058-0.529-0.01-0.754,0.132c-0.224,0.143-0.382,0.368-0.439,0.627L8.686,79.678  c-0.058,0.259-0.01,0.53,0.133,0.754c0.143,0.224,0.368,0.381,0.627,0.439l33.52,7.446c0.073,0.016,0.146,0.024,0.218,0.024  c0.458,0,0.872-0.317,0.976-0.783l6.482-29.176l5.501,13.304c0.101,0.245,0.296,0.439,0.541,0.542  c0.122,0.051,0.253,0.076,0.383,0.076s0.26-0.025,0.382-0.076l31.73-13.12C89.688,58.896,89.93,58.312,89.719,57.801z   M20.884,33.996l31.566,7.013l-10.028,45.14l-31.566-7.013L20.884,33.996z M87.488,57.642L57.607,69.998l-6.107-14.771  c-0.028-0.068-0.078-0.118-0.119-0.177l3.24-14.584c0.119-0.539-0.221-1.073-0.76-1.193l-9.864-2.191l-4.058-9.816L69.82,14.91  L87.488,57.642z"/><path d="M60.906,50.226l10.283-4.252c0.507-0.208,1.095,0.031,1.306,0.542s-0.031,1.095-0.542,1.307L61.67,52.075  c-0.125,0.051-0.254,0.076-0.382,0.076c-0.393,0-0.765-0.233-0.924-0.618C60.153,51.022,60.396,50.438,60.906,50.226z"/><path d="M62.793,54.789l10.283-4.252c0.508-0.208,1.095,0.031,1.306,0.542s-0.031,1.095-0.542,1.307l-10.283,4.252  c-0.125,0.051-0.254,0.076-0.382,0.076c-0.393,0-0.765-0.233-0.924-0.618C62.04,55.585,62.282,55,62.793,54.789z"/><path d="M57.863,45.747c0.133,0.061,0.275,0.092,0.419,0.092c0.117,0,0.234-0.021,0.346-0.062l10.797-3.98  c0.249-0.092,0.451-0.279,0.562-0.52s0.122-0.516,0.03-0.765l-1.072-2.908c-0.192-0.518-0.767-0.782-1.284-0.592l-0.276,0.102  l-6.683-10.173c-0.257-0.39-0.748-0.548-1.182-0.39l-3.253,1.199c-0.437,0.161-0.704,0.602-0.646,1.063l1.52,12.076l-0.276,0.102  c-0.519,0.191-0.783,0.766-0.593,1.284l1.071,2.908C57.436,45.434,57.622,45.636,57.863,45.747z M61.748,32.177l-3.525,1.299  l-0.519-4.123l1.762-0.65L61.748,32.177z M65.459,37.825l-6.391,2.356l-0.587-4.667l4.396-1.621L65.459,37.825z M58.495,42.523  l8.92-3.288l0.38,1.031l-8.92,3.288L58.495,42.523z"/><path d="M38.51,61.746l0.591-3.042c0.105-0.542-0.249-1.067-0.791-1.172l-0.289-0.056l-0.44-12.164  c-0.017-0.465-0.352-0.857-0.809-0.945l-3.403-0.661c-0.456-0.094-0.914,0.15-1.104,0.574l-4.962,11.114l-0.289-0.056  c-0.262-0.052-0.529,0.004-0.75,0.152c-0.22,0.148-0.371,0.378-0.422,0.639l-0.591,3.042c-0.105,0.542,0.249,1.067,0.791,1.172  l11.295,2.194c0.063,0.013,0.127,0.019,0.19,0.019c0.198,0,0.393-0.059,0.56-0.171C38.308,62.236,38.459,62.007,38.51,61.746z   M27.405,58.57l0.21-1.079l9.332,1.813l-0.21,1.079L27.405,58.57z M35.611,46.179l0.15,4.153l-3.688-0.716l1.694-3.794  L35.611,46.179z M36.006,57.085l-6.687-1.299l1.918-4.296l4.599,0.893L36.006,57.085z"/></svg>