<svg xmlns="http://www.w3.org/2000/svg" xmlns:xlink="http://www.w3.org/1999/xlink" version="1.1" x="0px" y="0px" viewBox="0 0 100 125" style="enable-background:new 0 0 100 100;" xml:space="preserve"><style type="text/css">
	.st0{fill:none;stroke:#000000;stroke-width:2;stroke-linecap:round;stroke-linejoin:round;stroke-miterlimit:10;}
</style><path d="M26.23,45.387h31.5c0.552,0,1-0.447,1-1V26.721c0-0.553-0.448-1-1-1h-31.5c-0.552,0-1,0.447-1,1v17.666  C25.23,44.939,25.678,45.387,26.23,45.387z M27.23,27.721h29.5v15.666h-29.5V27.721z"/><path d="M49.73,31.822h-15.5c-0.552,0-1,0.447-1,1s0.448,1,1,1h15.5c0.552,0,1-0.447,1-1S50.283,31.822,49.73,31.822z"/><path d="M49.73,37.285h-15.5c-0.552,0-1,0.447-1,1s0.448,1,1,1h15.5c0.552,0,1-0.447,1-1S50.283,37.285,49.73,37.285z"/><path d="M11.124,84.054c-0.552,0-1,0.447-1,1s0.448,1,1,1h1.765v3c0,0.553,0.448,1,1,1h49.206c3.103,0,5.628-2.524,5.628-5.628  V15.682c0-3.104-2.525-5.628-5.628-5.628H13.889c-0.552,0-1,0.447-1,1v3h-1.765c-0.552,0-1,0.447-1,1s0.448,1,1,1h1.765v3.833  h-1.765c-0.552,0-1,0.447-1,1s0.448,1,1,1h1.765v3.834h-1.765c-0.552,0-1,0.447-1,1s0.448,1,1,1h1.765v3.833h-1.765  c-0.552,0-1,0.447-1,1s0.448,1,1,1h1.765v3.833h-1.765c-0.552,0-1,0.447-1,1s0.448,1,1,1h1.765v3.834h-1.765c-0.552,0-1,0.447-1,1  s0.448,1,1,1h1.765v3.833h-1.765c-0.552,0-1,0.447-1,1s0.448,1,1,1h1.765v3.833h-1.765c-0.552,0-1,0.447-1,1s0.448,1,1,1h1.765  v3.834h-1.765c-0.552,0-1,0.447-1,1s0.448,1,1,1h1.765v3.833h-1.765c-0.552,0-1,0.447-1,1s0.448,1,1,1h1.765v3.833h-1.765  c-0.552,0-1,0.447-1,1s0.448,1,1,1h1.765v3.834h-1.765c-0.552,0-1,0.447-1,1s0.448,1,1,1h1.765v3.833H11.124z M14.889,80.221h1.765  c0.552,0,1-0.447,1-1s-0.448-1-1-1h-1.765v-3.834h1.765c0.552,0,1-0.447,1-1s-0.448-1-1-1h-1.765v-3.833h1.765c0.552,0,1-0.447,1-1  s-0.448-1-1-1h-1.765v-3.833h1.765c0.552,0,1-0.447,1-1s-0.448-1-1-1h-1.765v-3.834h1.765c0.552,0,1-0.447,1-1s-0.448-1-1-1h-1.765  v-3.833h1.765c0.552,0,1-0.447,1-1s-0.448-1-1-1h-1.765v-3.833h1.765c0.552,0,1-0.447,1-1s-0.448-1-1-1h-1.765v-3.834h1.765  c0.552,0,1-0.447,1-1s-0.448-1-1-1h-1.765v-3.833h1.765c0.552,0,1-0.447,1-1s-0.448-1-1-1h-1.765v-3.833h1.765c0.552,0,1-0.447,1-1  s-0.448-1-1-1h-1.765v-3.834h1.765c0.552,0,1-0.447,1-1s-0.448-1-1-1h-1.765v-3.833h1.765c0.552,0,1-0.447,1-1s-0.448-1-1-1h-1.765  v-2h48.206c2,0,3.628,1.628,3.628,3.628v68.744c0,2-1.627,3.628-3.628,3.628H14.889v-2h1.765c0.552,0,1-0.447,1-1s-0.448-1-1-1  h-1.765V80.221z"/><path d="M85.727,10.054h-7.755c-2.425,0-4.397,1.973-4.397,4.397v59.372c0,0.132,0.026,0.263,0.077,0.385l6.099,14.646  c0.033,0.078,0.075,0.151,0.126,0.22c0.473,0.623,1.192,0.98,1.974,0.98c0.782-0.001,1.501-0.358,1.973-0.981  c0.051-0.067,0.094-0.141,0.126-0.219l6.099-14.646c0.051-0.122,0.077-0.253,0.077-0.385V14.451  C90.125,12.026,88.152,10.054,85.727,10.054z M84.336,82.721h-4.974l-3.47-8.334h11.915L84.336,82.721z M88.125,22.429H75.574  v-2.417h12.551V22.429z M80.125,72.387V24.429h3.449v47.958H80.125z M75.574,24.429h2.551v47.958h-2.551V24.429z M85.574,72.387  V24.429h2.551v47.958H85.574z M77.972,12.054h7.755c1.322,0,2.398,1.075,2.398,2.397v3.561H75.574v-3.561  C75.574,13.129,76.65,12.054,77.972,12.054z M82.165,87.935c-0.226,0.204-0.407,0.202-0.631,0l-1.338-3.214h3.308L82.165,87.935z"/></svg>