<svg xmlns="http://www.w3.org/2000/svg" xmlns:xlink="http://www.w3.org/1999/xlink" version="1.1" x="0px" y="0px" viewBox="0 0 100 125" style="enable-background:new 0 0 100 100;" xml:space="preserve"><path d="M38.597,78.622c-0.391,0.391-0.391,1.023,0,1.414l8.745,8.745c0.188,0.188,0.442,0.293,0.707,0.293s0.52-0.105,0.707-0.293  l42.443-42.443c0.188-0.188,0.293-0.441,0.293-0.707s-0.105-0.52-0.293-0.707l-8.745-8.744c-0.391-0.391-1.023-0.391-1.414,0  L38.597,78.622z M40.718,79.329l41.029-41.028l7.331,7.33l-2.717,2.717l-2.332-2.332c-0.391-0.391-1.023-0.391-1.414,0  s-0.391,1.023,0,1.414l2.332,2.332l-1.458,1.458l-2.332-2.331c-0.391-0.391-1.023-0.391-1.414,0s-0.391,1.023,0,1.414l2.332,2.331  l-1.458,1.458l-2.331-2.331c-0.391-0.391-1.023-0.391-1.414,0s-0.391,1.023,0,1.414l2.331,2.331l-1.458,1.458l-2.331-2.331  c-0.391-0.391-1.023-0.391-1.414,0s-0.391,1.023,0,1.414l2.331,2.331l-1.458,1.458l-2.331-2.331c-0.391-0.391-1.023-0.391-1.414,0  s-0.391,1.023,0,1.414l2.331,2.331L72,62.708l-2.331-2.331c-0.391-0.391-1.023-0.391-1.414,0s-0.391,1.023,0,1.414l2.331,2.331  l-1.458,1.458l-2.331-2.331c-0.391-0.391-1.023-0.391-1.414,0s-0.391,1.023,0,1.414l2.331,2.331l-1.458,1.458l-2.332-2.331  c-0.391-0.391-1.023-0.391-1.414,0s-0.391,1.023,0,1.414l2.332,2.331l-1.458,1.458l-2.331-2.331c-0.391-0.391-1.023-0.391-1.414,0  s-0.391,1.023,0,1.414l2.331,2.331l-1.458,1.458l-2.331-2.331c-0.391-0.391-1.023-0.391-1.414,0s-0.391,1.023,0,1.414l2.331,2.331  l-1.458,1.458l-2.331-2.331c-0.391-0.391-1.023-0.391-1.414,0s-0.391,1.023,0,1.414l2.331,2.331l-1.458,1.458l-2.331-2.332  c-0.39-0.391-1.023-0.391-1.414,0s-0.391,1.023,0,1.414l2.331,2.332l-1.458,1.458l-2.332-2.332c-0.391-0.391-1.023-0.391-1.414,0  s-0.391,1.023,0,1.414l2.332,2.332l-2.434,2.434L40.718,79.329z"/><path d="M11.769,45.588c-2.497,2.497-2.497,6.56,0,9.057L28.424,71.3c1.248,1.248,2.888,1.873,4.528,1.873  c1.64,0,3.28-0.625,4.528-1.873l16.655-16.655c2.497-2.497,2.497-6.56,0-9.057l-0.656-0.656l24.227-24.227  c0.391-0.391,0.391-1.023,0-1.414l-3.962-3.962c-0.391-0.391-1.023-0.391-1.414,0s-0.391,1.023,0,1.414l3.255,3.255l-23.52,23.52  L37.481,28.934c-2.497-2.496-6.56-2.498-9.057,0L11.769,45.588z M13.183,47.002l16.655-16.654c0.858-0.858,1.986-1.288,3.114-1.288  c1.128,0,2.255,0.43,3.114,1.288l15.291,15.291c0,0,0.001,0.001,0.001,0.002c0,0,0.001,0,0.001,0.001l1.361,1.361  c1.717,1.717,1.717,4.512,0,6.229L36.067,69.886c-1.718,1.717-4.512,1.717-6.229,0L13.183,53.23  C11.465,51.514,11.465,48.719,13.183,47.002z"/><path d="M25.28,42.445c-2.049,2.049-3.178,4.773-3.178,7.671c0,2.898,1.128,5.623,3.178,7.672c2.049,2.05,4.774,3.178,7.672,3.178  s5.623-1.128,7.671-3.178c2.049-2.049,3.178-4.773,3.178-7.672c0-2.897-1.128-5.622-3.178-7.671  c-2.049-2.05-4.773-3.178-7.671-3.178S27.33,40.396,25.28,42.445z M24.103,50.116c0-2.363,0.92-4.586,2.592-6.257  c1.671-1.672,3.894-2.592,6.258-2.592s4.586,0.92,6.257,2.592c1.671,1.671,2.592,3.894,2.592,6.257c0,2.364-0.92,4.586-2.592,6.258  s-3.894,2.592-6.257,2.592s-4.586-0.92-6.258-2.592S24.103,52.48,24.103,50.116z"/></svg>